<?xml version="1.0" standalone="no"?>
<!DOCTYPE svg PUBLIC "-//W3C//DTD SVG 20010904//EN"
 "http://www.w3.org/TR/2001/REC-SVG-20010904/DTD/svg10.dtd">
<svg version="1.0" xmlns="http://www.w3.org/2000/svg"
 width="512.000000pt" height="512.000000pt" viewBox="0 0 512.000000 512.000000"
 preserveAspectRatio="xMidYMid meet">
<metadata>
Created by potrace 1.14, written by Peter Selinger 2001-2017
</metadata>
<g transform="translate(0.000000,512.000000) scale(0.100000,-0.100000)"
fill="#000000" stroke="none">
<path d="M1317 4518 c-661 -330 -1216 -611 -1233 -624 -88 -65 -97 -210 -18
-289 24 -24 160 -97 447 -241 227 -113 412 -209 412 -214 0 -4 -189 -103 -420
-218 -275 -138 -428 -220 -444 -239 -31 -35 -50 -86 -51 -136 0 -49 35 -122
74 -151 17 -13 217 -116 444 -230 l414 -205 -64 -32 c-35 -17 -229 -115 -433
-218 -353 -177 -371 -188 -400 -231 -26 -39 -30 -54 -30 -112 0 -57 4 -72 30
-110 29 -41 73 -64 1245 -652 1140 -571 1219 -609 1273 -612 l58 -3 1219 610
c1071 535 1222 613 1247 646 26 33 28 44 28 123 0 137 20 122 -480 372 -234
117 -424 216 -422 220 1 3 184 97 407 209 223 111 419 213 437 226 45 35 63
79 63 161 0 61 -4 74 -30 110 -25 35 -57 55 -212 133 -101 50 -295 147 -431
215 l-248 124 420 210 c295 147 430 220 455 245 40 40 50 78 44 164 -8 113 80
62 -1271 738 -1131 565 -1216 606 -1270 609 l-57 3 -1203 -601z m2196 -294
c513 -256 940 -470 949 -475 14 -8 -191 -114 -937 -487 l-955 -477 -955 477
-955 478 947 475 c522 260 954 474 961 474 8 1 433 -209 945 -465z m-1388
-1667 c367 -184 382 -191 442 -191 60 -1 66 1 622 279 l561 280 360 -180 c198
-99 360 -182 360 -185 0 -3 -428 -219 -950 -480 l-950 -475 -950 475 c-523
261 -950 478 -950 481 0 3 161 86 358 185 l357 179 180 -88 c99 -49 351 -175
560 -280z m441 -1371 c61 -1 66 1 623 279 l562 281 359 -180 c198 -99 359
-184 358 -187 -4 -9 -1883 -949 -1897 -949 -8 0 -1365 675 -1849 919 l-62 31
365 183 365 183 558 -280 c543 -273 559 -280 618 -280z"/>
</g>
</svg>
